<?xml version="1.0" encoding="utf-8"?>
<!-- Generator: Adobe Illustrator 22.0.1, SVG Export Plug-In . SVG Version: 6.00 Build 0)  -->
<svg version="1.1" id="Layer_1" xmlns="http://www.w3.org/2000/svg" xmlns:xlink="http://www.w3.org/1999/xlink" x="0px" y="0px"
	 viewBox="0 0 68 68" style="enable-background:new 0 0 68 68; fill:#d77a91;stroke-width:4;" xml:space="preserve">
<g id="_x34_62">
	<g>
		<g>
			<path d="M58.0600586,55.1386719H21.034668c-1.3925781,0-2.5263672-1.1333008-2.5263672-2.5258789V4.5146484
				C18.5083008,3.1279297,19.6420898,2,21.034668,2h28.8164063c1.0927734,0,2.1191406,0.4243164,2.8896484,1.1953125
				l6.6630859,6.6958008c0.7509766,0.7514648,1.1826172,1.796875,1.1826172,2.8666992v39.84375
				C60.5864258,54.0004883,59.4526367,55.1386719,58.0600586,55.1386719z M21.034668,4
				c-0.2851563,0-0.5263672,0.2358398-0.5263672,0.5146484V52.612793c0,0.2900391,0.2363281,0.5258789,0.5263672,0.5258789
				h37.0253906c0.2900391,0,0.5263672-0.2407227,0.5263672-0.5371094v-39.84375c0-0.543457-0.2177734-1.0737305-0.5986328-1.4541016
				L51.324707,4.6079102C50.9331055,4.2163086,50.409668,4,49.8510742,4H21.034668z"/>
		</g>
		<g>
			<path d="M59.0102539,12.4091797h-6.6650391c-1.1953125,0-2.1679688-0.9726563-2.1679688-2.168457V3.5356445
				c0-0.5522461,0.4472656-1,1-1s1,0.4477539,1,1v6.7050781c0,0.0927734,0.0751953,0.168457,0.1679688,0.168457h6.6650391
				c0.5527344,0,1,0.4477539,1,1S59.5629883,12.4091797,59.0102539,12.4091797z"/>
		</g>
	</g>
	<g>
		<g>
			<path d="M52.5131836,60.4521484H15.4868164c-1.3925781,0-2.5253906-1.1333008-2.5253906-2.5263672V9.828125
				c0-1.3867188,1.1328125-2.5146484,2.5253906-2.5146484h4.0214844c0.5527344,0,1,0.4477539,1,1V52.612793
				c0,0.2900391,0.2363281,0.5258789,0.5263672,0.5258789h33.0039063c0.5527344,0,1,0.4477539,1,1v3.7763672
				C55.0385742,59.3139648,53.9057617,60.4521484,52.5131836,60.4521484z M15.4868164,9.3134766
				c-0.2900391,0-0.5253906,0.230957-0.5253906,0.5146484v48.0976563c0,0.2949219,0.2304688,0.5263672,0.5253906,0.5263672
				h37.0263672c0.2851563,0,0.5253906-0.2460938,0.5253906-0.5371094v-2.7763672H21.034668
				c-1.3925781,0-2.5263672-1.1333008-2.5263672-2.5258789V9.3134766H15.4868164z"/>
		</g>
	</g>
	<g>
		<g>
			<path d="M46.965332,66H9.9389648c-1.3925781,0-2.5253906-1.1333008-2.5253906-2.5258789V15.3759766
				c0-1.3867188,1.1328125-2.5146484,2.5253906-2.5146484h4.0214844c0.5527344,0,1,0.4477539,1,1s-0.4472656,1-1,1H9.9389648
				c-0.2900391,0-0.5253906,0.230957-0.5253906,0.5146484v48.0981445C9.4135742,63.769043,9.644043,64,9.9389648,64H46.965332
				c0.2851563,0,0.5253906-0.2460938,0.5253906-0.5371094v-3.7763672c0-0.5522461,0.4472656-1,1-1s1,0.4477539,1,1v3.7763672
				C49.4907227,64.8618164,48.3579102,66,46.965332,66z"/>
		</g>
	</g>
	<g>
		<g>
			<g>
				<g>
					<path d="M30.8969727,15.2304688c-0.2158203,0-0.4326172-0.015625-0.6513672-0.0473633
						c-0.0009766-0.0004883-0.0029297-0.0004883-0.0039063-0.0009766c-1.8359375-0.2763672-3.3154297-1.7441406-3.6005859-3.5693359
						c-0.2216797-1.3837891,0.2138672-2.7470703,1.1962891-3.7358398c0.9833984-0.9887695,2.3447266-1.4350586,3.7363281-1.2192383
						c1.8330078,0.2753906,3.3085938,1.7504883,3.5849609,3.5874023c0.2089844,1.3798828-0.2294922,2.7333984-1.2021484,3.7124023
						C33.1352539,14.7832031,32.0463867,15.2304688,30.8969727,15.2304688z M30.5375977,13.2041016
						c0.75,0.1079102,1.4785156-0.1308594,2-0.65625c0.5224609-0.5253906,0.7568359-1.2558594,0.6435547-2.0043945
						c-0.1445313-0.9624023-0.9472656-1.7641602-1.9082031-1.9086914c-0.7548828-0.1162109-1.4892578,0.121582-2.0166016,0.6523438
						c-0.5273438,0.5297852-0.7597656,1.2636719-0.6396484,2.0136719
						C28.7661133,12.2597656,29.5737305,13.0585938,30.5375977,13.2041016z"/>
				</g>
			</g>
			<g>
				<path d="M37.3725586,23.6318359H24.4213867c-0.5527344,0-1-0.4477539-1-1v-4.3041992
					c0-2.8198242,2.2939453-5.1137695,5.1142578-5.1137695h4.7226563c2.8203125,0,5.1142578,2.2939453,5.1142578,5.1137695
					v4.3041992C38.3725586,23.184082,37.925293,23.6318359,37.3725586,23.6318359z M25.4213867,21.6318359h10.9511719v-3.3041992
					c0-1.7167969-1.3974609-3.1137695-3.1142578-3.1137695h-4.7226563c-1.7167969,0-3.1142578,1.3969727-3.1142578,3.1137695
					V21.6318359z"/>
			</g>
		</g>
	</g>
	<g>
		<path d="M46.4155273,9.3134766h-5.6181641c-0.5527344,0-1-0.4477539-1-1s0.4472656-1,1-1h5.6181641c0.5527344,0,1,0.4477539,1,1
			S46.9682617,9.3134766,46.4155273,9.3134766z"/>
	</g>
	<g>
		<path d="M46.4155273,14.3320313h-5.6181641c-0.5527344,0-1-0.4477539-1-1s0.4472656-1,1-1h5.6181641c0.5527344,0,1,0.4477539,1,1
			S46.9682617,14.3320313,46.4155273,14.3320313z"/>
	</g>
	<g>
		<path d="M54.7661133,19.3505859h-13.96875c-0.5527344,0-1-0.4477539-1-1s0.4472656-1,1-1h13.96875c0.5527344,0,1,0.4477539,1,1
			S55.3188477,19.3505859,54.7661133,19.3505859z"/>
	</g>
	<g>
		<path d="M54.7661133,24.3691406h-13.96875c-0.5527344,0-1-0.4477539-1-1s0.4472656-1,1-1h13.96875c0.5527344,0,1,0.4477539,1,1
			S55.3188477,24.3691406,54.7661133,24.3691406z"/>
	</g>
	<g>
		<path d="M54.7661133,29.3876953H24.4213867c-0.5527344,0-1-0.4477539-1-1s0.4472656-1,1-1h30.3447266c0.5527344,0,1,0.4477539,1,1
			S55.3188477,29.3876953,54.7661133,29.3876953z"/>
	</g>
	<g>
		<path d="M54.7661133,34.4067383H24.4213867c-0.5527344,0-1-0.4477539-1-1s0.4472656-1,1-1h30.3447266c0.5527344,0,1,0.4477539,1,1
			S55.3188477,34.4067383,54.7661133,34.4067383z"/>
	</g>
	<g>
		<path d="M54.7661133,39.425293H24.4213867c-0.5527344,0-1-0.4477539-1-1s0.4472656-1,1-1h30.3447266c0.5527344,0,1,0.4477539,1,1
			S55.3188477,39.425293,54.7661133,39.425293z"/>
	</g>
	<g>
		<path d="M54.7661133,44.4438477H24.4213867c-0.5527344,0-1-0.4477539-1-1s0.4472656-1,1-1h30.3447266c0.5527344,0,1,0.4477539,1,1
			S55.3188477,44.4438477,54.7661133,44.4438477z"/>
	</g>
	<g>
		<path d="M54.7661133,49.4624023H24.4213867c-0.5527344,0-1-0.4477539-1-1s0.4472656-1,1-1h30.3447266c0.5527344,0,1,0.4477539,1,1
			S55.3188477,49.4624023,54.7661133,49.4624023z"/>
	</g>
</g>
</svg>
