<?xml version="1.0" encoding="utf-8"?>
<!-- Generator: Adobe Illustrator 25.2.3, SVG Export Plug-In . SVG Version: 6.00 Build 0)  -->
<svg version="1.1" id="Layer_51" xmlns="http://www.w3.org/2000/svg" xmlns:xlink="http://www.w3.org/1999/xlink" x="0px" y="0px"
	 viewBox="0 0 64 64" style="enable-background:new 0 0 64 64;" xml:space="preserve">
<g id="email-mail-envelope-letter-contract">
	<g>
		<path d="M60.577,20.56L56,17.723V3c0-0.552-0.447-1-1-1H18.998c-0.265,0-0.52,0.105-0.707,0.293l-9.998,9.994
			C8.105,12.475,8,12.729,8,12.994v4.729l-4.581,2.84C2.531,21.119,2,22.071,2,23.11V59c0,1.654,1.346,3,3,3h54c1.654,0,3-1.346,3-3
			V23.11C62,22.072,61.47,21.12,60.577,20.56z M59.519,22.257C59.82,22.446,60,22.765,60,23.11v0.334l-4,2.483v-5.85L59.519,22.257z
			 M54,27.168L33.582,39.841c-0.977,0.605-2.188,0.605-3.164,0L10,27.168V14h7c1.654,0,3-1.346,3-3V4h34V27.168z M11.409,12
			L18,5.411V11c0,0.551-0.449,1-1,1H11.409z M4.477,22.26L8,20.076v5.85l-4-2.483V23.11C4,22.765,4.18,22.446,4.477,22.26z M59,60H5
			c-0.551,0-1-0.449-1-1V25.798l25.363,15.743c0.813,0.505,1.725,0.757,2.637,0.757s1.823-0.252,2.637-0.757L60,25.798V59
			C60,59.551,59.552,60,59,60z"/>
		<path d="M32,34h4c0.553,0,1-0.448,1-1s-0.447-1-1-1h-4c-4.962,0-9-4.038-9-9s4.038-9,9-9c4.963,0,9,4.038,9,9v1
			c0,1.103-0.897,2-2,2s-2-0.897-2-2v-1c0-2.757-2.243-5-5-5s-5,2.243-5,5s2.243,5,5,5c1.49,0,2.815-0.669,3.732-1.707
			C36.457,27.322,37.648,28,39,28c2.206,0,4-1.794,4-4v-1c0-6.065-4.935-11-11-11s-11,4.935-11,11S25.935,34,32,34z M32,26
			c-1.654,0-3-1.346-3-3s1.346-3,3-3s3,1.346,3,3S33.654,26,32,26z"/>
	</g>
</g>
</svg>
